<?xml version="1.0" standalone="no"?>
<!DOCTYPE svg PUBLIC "-//W3C//DTD SVG 20010904//EN"
 "http://www.w3.org/TR/2001/REC-SVG-20010904/DTD/svg10.dtd">
<svg version="1.0" xmlns="http://www.w3.org/2000/svg"
 width="998.000000pt" height="912.000000pt" viewBox="0 0 998.000000 912.000000"
 preserveAspectRatio="xMidYMid meet">

<g transform="translate(0.000000,912.000000) scale(0.100000,-0.100000)"
fill="#000000" stroke="none">
<path d="M0 5463 c0 -3293 2 -3655 15 -3636 9 13 33 27 55 33 34 9 39 14 38
40 -1 37 24 75 65 97 26 14 70 19 232 24 190 6 234 11 385 44 36 8 92 19 126
24 82 13 136 28 159 45 16 12 17 16 6 30 -10 12 -31 16 -80 16 -86 0 -122 11
-165 50 -70 64 -84 166 -29 210 35 28 65 26 217 -16 72 -20 156 -42 186 -50
68 -16 170 -56 214 -84 34 -20 58 -48 154 -172 l51 -66 61 -282 c33 -155 60
-283 60 -285 0 -1 -16 -6 -36 -10 -20 -3 -82 -28 -137 -54 -99 -46 -202 -81
-337 -117 -75 -20 -330 -33 -434 -22 -48 5 -89 17 -134 40 -75 38 -100 66
-108 120 -6 36 -8 38 -43 38 -123 0 -292 70 -335 139 -19 29 -35 40 -82 55
-33 10 -69 27 -82 39 l-22 20 0 -866 0 -867 4990 0 4990 0 0 4560 0 4560
-4990 0 -4990 0 0 -3657z m6047 2766 c132 -25 181 -52 229 -123 40 -61 119
-284 134 -384 6 -37 17 -94 25 -127 12 -56 30 -230 40 -385 l3 -65 -11 48 c-8
35 -15 47 -26 45 -19 -4 -19 -3 -2 -96 12 -66 15 -73 34 -70 19 3 24 -5 35
-57 8 -33 14 -76 13 -95 0 -19 8 -48 18 -65 16 -26 17 -41 10 -114 -5 -47 -14
-88 -20 -91 -6 -4 -10 -10 -10 -14 7 -52 -73 -155 -186 -238 -49 -35 -110 -81
-138 -101 -83 -61 -195 -137 -201 -137 -4 0 -34 -14 -68 -31 -64 -33 -165 -59
-231 -59 -87 0 -243 96 -344 212 -128 146 -245 368 -328 618 -19 58 -45 130
-58 160 -13 30 -26 69 -30 85 -3 17 -14 64 -24 105 -49 189 -61 242 -82 340
-12 58 -32 149 -45 202 -26 105 -31 217 -13 279 l12 38 36 -19 c20 -10 63 -26
94 -35 54 -16 64 -16 160 0 56 10 158 38 227 62 201 72 239 84 355 108 140 30
254 31 392 4z m440 -1111 c-3 -8 -6 -5 -6 6 -1 11 2 17 5 13 3 -3 4 -12 1 -19z
m360 -553 c13 -9 35 -34 51 -57 23 -36 27 -51 26 -112 -2 -116 -91 -348 -250
-646 -36 -69 -82 -156 -101 -195 -18 -38 -47 -95 -64 -125 -142 -261 -280
-553 -339 -715 -23 -66 -54 -145 -67 -175 -24 -52 -120 -312 -165 -445 -30
-87 -40 -91 -37 -15 2 36 -3 89 -10 119 -8 30 -11 74 -8 102 3 26 2 61 -3 77
-4 16 -5 45 -1 63 5 23 3 45 -7 65 -11 25 -12 39 -4 62 6 17 8 49 5 71 -3 22
0 54 6 70 10 24 10 34 -3 59 -20 39 -20 66 0 126 13 37 14 56 7 81 -7 22 -7
51 -1 86 13 69 13 87 0 124 -6 17 -16 54 -22 82 -12 52 -11 54 19 92 17 21 31
44 31 50 0 6 5 11 10 11 6 0 10 8 10 19 0 10 7 24 15 31 8 7 15 18 15 25 0 8
3 15 8 17 12 5 42 68 42 89 0 16 -41 43 -78 50 -4 0 -14 5 -23 9 -16 9 -94 20
-169 24 -48 3 -120 -25 -121 -47 -5 -98 10 -226 33 -273 10 -22 4 -40 -57
-154 -16 -29 -24 -59 -23 -84 2 -31 -3 -42 -25 -58 -17 -12 -29 -33 -33 -56
-4 -20 -13 -49 -20 -64 -8 -15 -14 -47 -14 -71 0 -31 -6 -49 -20 -62 -14 -13
-20 -31 -20 -60 0 -27 -12 -66 -35 -112 -19 -39 -35 -85 -35 -101 0 -16 -7
-46 -15 -65 -8 -20 -17 -62 -21 -94 -8 -85 -23 -160 -44 -228 -10 -33 -22 -80
-25 -104 -4 -24 -14 -60 -23 -80 -8 -20 -18 -49 -22 -66 -6 -28 -7 -26 -18 25
-51 252 -66 337 -75 415 -14 126 -12 667 3 730 6 28 17 84 25 125 31 180 110
446 181 610 18 41 47 121 65 178 23 75 39 108 58 123 l26 20 49 -53 c151 -163
240 -248 279 -267 45 -22 116 -28 145 -12 37 21 754 741 749 753 -6 18 51 38
87 32 17 -2 40 -11 53 -19z"/>
<path d="M5980 7754 c-47 -14 -96 -28 -110 -31 -14 -3 -27 -9 -30 -12 -6 -8
-80 -34 -100 -36 -32 -2 -39 -14 -28 -45 8 -24 15 -29 36 -28 15 1 32 5 38 10
16 12 139 56 218 79 80 23 130 27 149 11 10 -9 18 -8 32 2 17 12 17 16 5 30
-37 45 -102 51 -210 20z"/>
<path d="M5488 7683 c-32 -38 -43 -87 -27 -123 1 -3 3 -142 3 -310 2 -261 4
-310 18 -342 22 -49 55 -65 94 -45 16 8 34 12 41 10 6 -2 23 3 37 12 14 9 30
14 35 10 6 -3 29 11 51 33 39 37 40 39 35 93 -3 30 -12 86 -21 124 -8 39 -17
87 -18 108 -2 21 -11 46 -20 56 -9 9 -16 33 -16 53 0 19 -3 38 -7 42 -10 9
-42 136 -42 168 -1 40 -18 70 -58 101 -41 31 -83 35 -105 10z"/>
<path d="M5931 7574 c-25 -32 -26 -52 -5 -82 20 -29 79 -31 94 -2 15 27 3 66
-27 90 -33 26 -37 25 -62 -6z"/>
<path d="M5287 7560 c-15 -5 -49 -11 -75 -15 -79 -10 -105 -15 -152 -31 -56
-19 -94 -49 -87 -69 5 -13 11 -12 49 1 55 20 204 45 223 37 8 -3 15 -1 15 4 0
8 14 10 95 16 23 2 32 32 15 52 -14 16 -40 18 -83 5z"/>
<path d="M5213 7408 c-19 -24 -22 -48 -12 -78 10 -26 16 -30 48 -30 42 0 61
14 61 46 0 51 -71 96 -97 62z"/>
<path d="M6421 6988 c1 -62 34 -251 44 -255 6 -1 16 1 23 6 11 6 9 29 -8 122
-29 159 -29 159 -45 159 -10 0 -15 -10 -14 -32z"/>
<path d="M6074 6999 c-3 -6 5 -23 19 -37 28 -30 77 -121 77 -144 0 -20 9 -28
26 -21 21 8 17 37 -12 96 -25 50 -80 117 -95 117 -4 0 -11 -5 -15 -11z"/>
<path d="M5950 6855 c0 -20 5 -25 25 -25 20 0 25 5 25 25 0 20 -5 25 -25 25
-20 0 -25 -5 -25 -25z"/>
<path d="M6046 6836 c-38 -40 -132 -106 -151 -106 -8 0 -15 -4 -15 -8 0 -19
-186 -68 -290 -76 -25 -2 -48 -4 -52 -5 -7 -1 -12 -50 -5 -51 61 -10 82 -10
109 -1 18 6 53 14 78 17 41 6 131 36 205 70 38 17 125 99 150 141 27 46 8 59
-29 19z"/>
<path d="M5816 6838 c-8 -33 -8 -35 13 -41 15 -4 20 2 23 24 3 18 -1 30 -10
34 -19 7 -19 7 -26 -17z"/>
<path d="M5685 6809 c-4 -16 -4 -33 0 -39 11 -18 32 -11 39 13 9 36 7 44 -13
50 -16 4 -21 -2 -26 -24z"/>
<path d="M6335 6788 c3 -24 7 -50 9 -58 1 -8 8 -54 16 -102 11 -76 16 -88 33
-88 22 0 22 10 -10 193 -14 82 -19 97 -35 97 -17 0 -18 -5 -13 -42z"/>
<path d="M5566 6803 c-3 -4 -6 -19 -6 -35 0 -21 5 -28 20 -28 15 0 20 7 20 29
0 27 -20 47 -34 34z"/>
<path d="M5460 6766 c-13 -36 -13 -46 4 -46 17 0 31 49 17 63 -7 7 -14 1 -21
-17z"/>
<path d="M5377 6753 c-2 -5 -7 -20 -11 -35 -5 -21 -3 -28 8 -28 15 0 26 21 26
51 0 19 -15 26 -23 12z"/>
<path d="M6227 6667 c-6 -15 -2 -64 14 -174 10 -68 15 -83 30 -83 21 0 28 25
18 62 -4 15 -10 53 -14 85 -3 32 -8 67 -10 78 -2 11 -4 26 -4 33 -1 16 -27 16
-34 -1z"/>
<path d="M5305 6570 c-4 -6 -9 -38 -12 -71 -5 -48 -3 -59 9 -59 11 0 17 16 22
61 7 60 -3 95 -19 69z"/>
<path d="M6129 6506 c-2 -2 0 -43 5 -90 8 -72 13 -86 27 -86 10 0 20 3 22 8 4
6 -3 70 -16 147 -4 18 -27 32 -38 21z"/>
<path d="M5356 6428 c-11 -93 -8 -120 12 -116 14 3 17 16 20 86 2 65 0 82 -11
82 -10 0 -16 -17 -21 -52z"/>
<path d="M5445 6304 c-7 -80 -5 -90 20 -81 21 9 22 157 1 157 -10 0 -16 -21
-21 -76z"/>
<path d="M6020 6321 c0 -54 2 -61 19 -61 28 0 31 9 23 66 -5 35 -12 50 -25 52
-15 3 -17 -5 -17 -57z"/>
<path d="M5901 6255 c2 -55 5 -65 18 -63 12 2 17 18 19 66 3 57 1 62 -18 62
-19 0 -21 -5 -19 -65z"/>
<path d="M5555 6298 c-2 -7 -5 -48 -7 -91 -3 -73 -2 -78 17 -75 18 3 20 11 20
87 0 59 -4 86 -12 88 -7 3 -15 -1 -18 -9z"/>
<path d="M5807 6283 c-4 -3 -7 -35 -7 -70 0 -57 2 -63 21 -63 20 0 21 10 10
133 -1 9 -15 9 -24 0z"/>
<path d="M5680 6204 c0 -66 2 -75 18 -72 14 3 18 16 20 76 3 67 1 72 -18 72
-18 0 -20 -6 -20 -76z"/>
</g>
</svg>
