<svg xmlns="http://www.w3.org/2000/svg" style="background:#fff" width="83.622" height="150.815" preserveAspectRatio="xMidYMid" viewBox="208.189 -0.407 83.622 150.815"><defs><linearGradient id="editing-outline-gradient" x1="-.277" x2="1.277" y1="-.129" y2="1.129"><stop offset="0" stop-color="#d34c31"/><stop offset="1" stop-color="#e88432"/></linearGradient><filter id="editing-outline" width="300%" height="300%" x="-100%" y="-100%"><feMorphology in="SourceGraphic" operator="dilate" radius="2" result="outline"/><feComposite in="outline" in2="SourceAlpha" operator="out"/></filter></defs><g filter="url(#editing-outline)"><g><path fill="url(#editing-outline-gradient)" d="M5.60 0L5.60-54.16L5.60-54.16Q6.16-54.16 8.16-54.20L8.16-54.20L8.16-54.20Q10.16-54.24 12.64-54.24L12.64-54.24L12.64-54.24Q15.12-54.24 17.60-54.28L17.60-54.28L17.60-54.28Q20.08-54.32 21.68-54.32L21.68-54.32L21.68-54.32Q31.60-54.32 36.16-50.44L36.16-50.44L36.16-50.44Q40.72-46.56 40.72-39.52L40.72-39.52L40.72-39.52Q40.72-34.88 38.40-31.28L38.40-31.28L38.40-31.28Q36.08-27.68 30.80-26.08L30.80-26.08L30.80-26.08Q33.04-24.80 34.80-22.56L34.80-22.56L34.80-22.56Q36.56-20.32 38.24-17.08L38.24-17.08L38.24-17.08Q39.92-13.84 41.68-9.56L41.68-9.56L41.68-9.56Q43.44-5.28 45.76 0L45.76 0L35.44 0L35.44 0Q32.72-6.32 30.68-10.80L30.68-10.80L30.68-10.80Q28.64-15.28 26.72-18.08L26.72-18.08L26.72-18.08Q24.80-20.88 22.60-22.16L22.60-22.16L22.60-22.16Q20.40-23.44 17.44-23.44L17.44-23.44L15.12-23.44L15.12 0L5.60 0ZM15.12-47.52L15.12-30.40L21.28-30.40L21.28-30.40Q25.76-30.40 28.20-32.40L28.20-32.40L28.20-32.40Q30.64-34.40 30.64-38.32L30.64-38.32L30.64-38.32Q30.64-40.08 30.16-41.76L30.16-41.76L30.16-41.76Q29.68-43.44 28.52-44.72L28.52-44.72L28.52-44.72Q27.36-46 25.40-46.76L25.40-46.76L25.40-46.76Q23.44-47.52 20.48-47.52L20.48-47.52L15.12-47.52Z" transform="translate(224.74187517166138, 102.09749984741211)"/></g></g><style/></svg>