<svg width="111.502490234375px" height="124.401171875px" xmlns="http://www.w3.org/2000/svg" viewBox="194.2487548828125 12.799414062499999 111.502490234375 124.401171875" style="background: rgb(255, 255, 255);" preserveAspectRatio="xMidYMid"><defs><linearGradient id="editing-gradient-gradient" x1="0.17860619515673032" x2="0.8213938048432696" y1="0.116977778440511" y2="0.883022221559489" gradientUnits="objectBoundingBox"><stop offset="0" stop-color="#35578f"></stop><stop offset="1" stop-color="#22202c"></stop></linearGradient></defs><g><g transform="translate(216.33500051498413, 97.54718780517578)"><path d="M26.18 0L11.71-22.08L8.64-17.22L8.64 0L5.06 0L5.06-44.86L8.64-44.86L8.64-23.49L22.98-44.86L27.14-44.86L14.02-25.47L30.46 0L26.18 0ZM35.39 0L35.39-44.86L47.42-44.86L47.42-44.86Q54.66-44.86 58.46-40.90L58.46-40.90L58.46-40.90Q62.27-36.93 62.27-30.34L62.27-30.34L62.27-12.80L62.27-12.80Q62.27 0 48.70 0L48.70 0L35.39 0ZM58.69-30.98L58.69-30.98Q58.69-34.62 57.12-37.02L57.12-37.02L57.12-37.02Q55.55-39.42 53.12-40.51L53.12-40.51L53.12-40.51Q50.69-41.60 48.06-41.60L48.06-41.60L38.98-41.60L38.98-3.20L47.68-3.20L47.68-3.20Q52.35-3.20 55.52-5.02L55.52-5.02L55.52-5.02Q58.69-6.85 58.69-12.16L58.69-12.16L58.69-30.98Z" fill="url(#editing-gradient-gradient)"></path></g></g><style>text {
  font-size: 64px;
  font-family: Arial Black;
  dominant-baseline: central;
  text-anchor: middle;
}</style></svg>